HIERARCHY
ROOT Hips
{
	OFFSET 0.000000 0.000000 0.000000
	CHANNELS 6 Xposition Yposition Zposition Zrotation Yrotation Xrotation 
	JOINT LHipJoint
	{
		OFFSET 0.000000 0.000000 0.000000
		CHANNELS 3 Zrotation Yrotation Xrotation
		JOINT LeftUpLeg
		{
			OFFSET 1.363060 -1.794630 0.839290
			CHANNELS 3 Zrotation Yrotation Xrotation
			JOINT LeftLeg
			{
				OFFSET 2.448110 -6.726130 0.000000
				CHANNELS 3 Zrotation Yrotation Xrotation
				JOINT LeftFoot
				{
					OFFSET 2.562200 -7.039590 0.000000
					CHANNELS 3 Zrotation Yrotation Xrotation
					JOINT LeftToeBase
					{
						OFFSET 0.157640 -0.433110 2.322550
						CHANNELS 3 Zrotation Yrotation Xrotation
						End Site
						{
							OFFSET 0.000000 0.000000 0.000000
						}
					}
				}
			}
		}
	}
	JOINT RHipJoint
	{
		OFFSET 0.000000 0.000000 0.000000
		CHANNELS 3 Zrotation Yrotation Xrotation
		JOINT RightUpLeg
		{
			OFFSET -1.305520 -1.794630 0.839290
			CHANNELS 3 Zrotation Yrotation Xrotation
			JOINT RightLeg
			{
				OFFSET -2.542530 -6.985550 0.000000
				CHANNELS 3 Zrotation Yrotation Xrotation
				JOINT RightFoot
				{
					OFFSET -2.568260 -7.056230 0.000000
					CHANNELS 3 Zrotation Yrotation Xrotation
					JOINT RightToeBase
					{
						OFFSET -0.164730 -0.452590 2.363150
						CHANNELS 3 Zrotation Yrotation Xrotation
						End Site
						{
							OFFSET 0.000000 0.000000 0.000000
						}
					}
				}
			}
		}
	}
	JOINT LowerBack
	{
		OFFSET 0.000000 0.000000 0.000000
		CHANNELS 3 Zrotation Yrotation Xrotation
		JOINT Spine
		{
			OFFSET 0.028270 2.035590 -0.193380
			CHANNELS 3 Zrotation Yrotation Xrotation
			JOINT Spine1
			{
				OFFSET 0.056720 2.048850 -0.042750
				CHANNELS 3 Zrotation Yrotation Xrotation
				JOINT Neck
				{
					OFFSET 0.000000 0.000000 0.000000
					CHANNELS 3 Zrotation Yrotation Xrotation
					JOINT Neck1
					{
						OFFSET -0.054170 1.746240 0.172020
						CHANNELS 3 Zrotation Yrotation Xrotation
						JOINT Head
						{
							OFFSET 0.104070 1.761360 -0.123970
							CHANNELS 3 Zrotation Yrotation Xrotation
							End Site
							{
								OFFSET 0.000000 0.000000 0.000000
							}
						}
					}
				}
				JOINT LeftShoulder
				{
					OFFSET 0.000000 0.000000 0.000000
					CHANNELS 3 Zrotation Yrotation Xrotation
					JOINT LeftArm
					{
						OFFSET 3.362410 1.200890 -0.311210
						CHANNELS 3 Zrotation Yrotation Xrotation
						JOINT LeftForeArm
						{
							OFFSET 4.983000 -0.000000 -0.000000
							CHANNELS 3 Zrotation Yrotation Xrotation
							JOINT LeftHand
							{
								OFFSET 3.483560 -0.000000 -0.000000
								CHANNELS 3 Zrotation Yrotation Xrotation
								JOINT LeftFingerBase
								{
									OFFSET 0.000000 0.000000 0.000000
									CHANNELS 3 Zrotation Yrotation Xrotation
									JOINT LeftHandIndex1
									{
										OFFSET 0.715260 -0.000000 -0.000000
										CHANNELS 3 Zrotation Yrotation Xrotation
										End Site
										{
											OFFSET 0.000000 0.000000 0.000000
										}
									}
								}
								JOINT LThumb
								{
									OFFSET 0.000000 0.000000 0.000000
									CHANNELS 3 Zrotation Yrotation Xrotation
									End Site
									{
										OFFSET 0.000000 0.000000 0.000000
									}
								}
							}
						}
					}
				}
				JOINT RightShoulder
				{
					OFFSET 0.000000 0.000000 0.000000
					CHANNELS 3 Zrotation Yrotation Xrotation
					JOINT RightArm
					{
						OFFSET -3.136600 1.374050 -0.404650
						CHANNELS 3 Zrotation Yrotation Xrotation
						JOINT RightForeArm
						{
							OFFSET -5.241900 -0.000000 -0.000000
							CHANNELS 3 Zrotation Yrotation Xrotation
							JOINT RightHand
							{
								OFFSET -3.444170 -0.000000 -0.000000
								CHANNELS 3 Zrotation Yrotation Xrotation
								JOINT RightFingerBase
								{
									OFFSET 0.000000 0.000000 0.000000
									CHANNELS 3 Zrotation Yrotation Xrotation
									JOINT RightHandIndex1
									{
										OFFSET -0.622530 -0.000000 -0.000000
										CHANNELS 3 Zrotation Yrotation Xrotation
										End Site
										{
											OFFSET 0.000000 0.000000 0.000000
										}
									}
								}
								JOINT RThumb
								{
									OFFSET 0.000000 0.000000 0.000000
									CHANNELS 3 Zrotation Yrotation Xrotation
									End Site
									{
										OFFSET 0.000000 0.000000 0.000000
									}
								}
							}
						}
					}
				}
			}
		}
	}
}
MOTION
Frames: 6
Frame Time: 0.008333
3.634897 17.246747 0.735456 8.793527 -83.032270 3.565871 -11.102908 0.917364 1.870153 -4.403147 10.299257 -17.666881 -2.595856 -1.538025 -2.997486 0.062728 2.537294 6.382687 0.973900 -0.000000 -36.679700 9.714243 -2.329876 2.124558 3.507836 -7.299810 -11.945196 2.097471 1.293366 -1.953131 -0.719294 -8.036285 -1.402591 -2.342500 0.000000 -40.314800 0.409295 3.384946 -4.900406 0.437340 3.495281 -4.417055 1.464106 3.591673 -4.267803 -6.884773 2.953641 0.204413 -1.225940 -0.222964 2.246796 0.000000 0.000000 0.000000 3.547997 -0.253473 -4.148441 -90.884815 -16.252102 26.096765 178.822305 -50.627343 179.920632 3.030501 -8.489407 -0.240810 0.158163 1.090537 -0.000000 0.000000 0.000000 0.000000 0.000000 0.000000 0.000000 -16.302989 9.252897 2.182990 -13.368694 70.162827 -111.610751 -3.864881 4.396415 -0.100089 -15.300984 11.882179 -1.705261 0.230230 -0.569621 -0.000000 0.000000 0.000000 0.000000 0.000000 0.000000 0.000000 
3.627343 17.245900 0.735185 8.232655 -82.829216 4.125917 -11.092354 0.929470 1.886359 -4.357981 10.226049 -17.619766 -2.598785 -1.539998 -3.115870 0.049841 2.425815 6.446400 0.952000 -0.000000 -36.755400 9.722630 -2.322396 2.108101 3.552001 -7.319240 -11.876324 2.086991 1.295561 -1.912089 -0.732741 -8.208082 -1.491327 -2.376400 0.000001 -40.224600 0.411649 3.337203 -4.900462 0.405441 3.446523 -4.484275 1.309397 3.560838 -4.551377 -6.674065 2.727887 0.365345 -1.254146 -0.228228 2.295874 0.000000 0.000000 0.000000 3.776609 -0.308320 -4.035522 -91.015107 -16.005039 26.153267 178.851724 -50.638024 179.920993 3.002845 -8.499276 -0.238877 0.157686 1.095774 -0.000000 0.000000 0.000000 0.000000 0.000000 0.000000 0.000000 -16.182017 9.110039 1.468274 -8.363698 70.752232 -105.864170 -3.917321 5.686920 -0.099239 -14.574567 11.923838 -1.628788 0.208730 -0.576324 -0.000000 0.000000 0.000000 0.000000 0.000000 0.000000 0.000000 
3.620319 17.245103 0.735395 7.697862 -82.630103 4.684235 -11.087921 0.929521 1.868367 -4.305077 10.159911 -17.560148 -2.600203 -1.538587 -3.237359 0.038480 2.317145 6.509023 0.929401 -0.000000 -36.832299 9.726651 -2.303632 2.063339 3.597103 -7.323112 -11.788123 2.074652 1.296564 -1.887718 -0.750107 -8.390534 -1.566247 -2.410500 0.000001 -40.134500 0.441471 3.297428 -4.814150 0.346171 3.400330 -4.603022 1.016931 3.547024 -5.111493 -6.348560 2.590737 0.644017 -1.304109 -0.237279 2.380384 0.000000 0.000000 0.000000 4.096822 -0.361806 -3.839724 -91.079494 -15.656885 26.202676 178.928992 -50.651288 179.921691 2.981166 -8.500559 -0.237558 0.153458 1.103012 -0.000000 0.000000 0.000000 0.000000 0.000000 0.000000 0.000000 -16.007896 9.040607 0.278905 0.249670 71.249073 -95.120750 -4.183596 7.842685 -0.099201 -13.713015 11.627188 -1.494453 0.182287 -0.582761 -0.000000 0.000000 0.000000 0.000000 0.000000 0.000000 0.000000 
3.614095 17.244337 0.735983 7.220834 -82.460192 5.244436 -11.091203 0.913341 1.796200 -4.246869 10.098429 -17.504704 -2.599287 -1.531016 -3.361334 0.031223 2.222267 6.565280 0.907699 0.000000 -36.908100 9.724740 -2.259780 1.966719 3.642057 -7.303761 -11.695643 2.062020 1.299390 -1.881219 -0.769675 -8.574161 -1.624534 -2.443201 -0.000000 -40.048201 0.528300 3.240109 -4.582178 0.260047 3.325949 -4.780399 0.563232 3.516892 -5.996914 -5.962878 2.559690 0.939501 -1.384652 -0.248784 2.471918 0.000000 0.000000 0.000000 4.516724 -0.246433 -3.583712 -91.070966 -15.173378 26.261046 179.045244 -50.604593 179.922731 2.964225 -8.497254 -0.236920 0.145845 1.108751 -0.000000 0.000000 0.000000 0.000000 0.000000 0.000000 0.000000 -15.808239 8.846751 -1.330629 12.371591 71.514444 -79.498193 -4.983653 10.856958 -0.103165 -12.928751 10.927587 -1.326071 0.147806 -0.593090 -0.000000 0.000000 0.000000 0.000000 0.000000 0.000000 0.000000 
3.608573 17.243613 0.736833 6.801997 -82.381485 5.798015 -11.099089 0.897262 1.686439 -4.181144 10.046334 -17.454838 -2.593720 -1.515380 -3.490524 0.030252 2.151344 6.609347 0.888200 -0.000000 -36.980400 9.718486 -2.186540 1.821953 3.686898 -7.256038 -11.600559 2.052599 1.311827 -1.890589 -0.788413 -8.745415 -1.662775 -2.473300 0.000000 -39.968701 0.679665 3.095015 -4.236904 0.181569 3.152439 -4.969644 0.054937 3.378893 -6.954481 -5.603978 2.645053 1.071638 -1.512758 -0.259576 2.514734 0.000000 0.000000 0.000000 4.970700 0.226102 -3.355135 -90.989714 -14.595797 26.281678 179.136202 -50.407513 179.923649 2.957748 -8.494140 -0.236963 0.139110 1.107293 -0.000000 0.000000 0.000000 0.000000 0.000000 0.000000 0.000000 -15.416132 8.288272 -2.762736 24.831846 71.798405 -62.882466 -6.331176 14.266410 -0.113630 -12.365588 9.913970 -1.154677 0.100862 -0.615586 0.000000 0.000000 0.000000 0.000000 0.000000 0.000000 0.000000 
3.603757 17.242909 0.737851 6.377361 -82.412484 6.299536 -11.104478 0.909321 1.608873 -4.101250 10.014440 -17.372740 -2.581588 -1.495706 -3.615469 0.033440 2.103945 6.639919 0.872300 0.000000 -37.046700 9.713170 -2.114587 1.694584 3.732486 -7.195981 -11.471508 2.047245 1.334104 -1.910957 -0.805934 -8.898695 -1.681728 -2.499900 -0.000000 -39.898199 0.815143 2.850919 -3.967847 0.150897 2.882496 -5.092666 -0.308235 3.118374 -7.552810 -5.252851 2.835472 1.083849 -1.673498 -0.268641 2.515380 0.000000 0.000000 0.000000 5.349323 0.850089 -3.208233 -90.869119 -14.076550 26.193638 179.145323 -50.131283 179.923837 2.970373 -8.488197 -0.237940 0.137621 1.100540 -0.000000 0.000000 0.000000 0.000000 0.000000 0.000000 0.000000 -14.633898 7.608247 -3.454788 34.252954 72.179912 -49.537376 -7.473142 17.665529 -0.126533 -12.002764 8.806406 -1.001855 0.050955 -0.648183 -0.000000 0.000000 0.000000 0.000000 0.000000 0.000000 0.000000 
